<svg id="Group_1749" data-name="Group 1749" xmlns="http://www.w3.org/2000/svg" width="43.591" height="49.137" viewBox="0 0 43.591 49.137">
  <path id="Path_803" data-name="Path 803" d="M40.142,27.709v6.8a18.351,18.351,0,1,1-36.7.2V27.881a1.76,1.76,0,0,0-1.789-1.846h0A1.665,1.665,0,0,0,0,27.723v7.005a21.863,21.863,0,0,0,21.8,21.8h0a21.863,21.863,0,0,0,21.8-21.8V27.673a1.707,1.707,0,0,0-1.7-1.7h0A1.742,1.742,0,0,0,40.142,27.709Z" transform="translate(0 -7.387)" fill="#0084ff"/>
  <path id="Path_804" data-name="Path 804" d="M25.168,0h0A13.626,13.626,0,0,0,11.58,13.581V27.162A13.62,13.62,0,0,0,25.161,40.744h0A13.62,13.62,0,0,0,38.742,27.162V13.581A13.609,13.609,0,0,0,25.168,0Zm6.655,26.776H18.278a1.338,1.338,0,0,1,0-2.676H31.823a1.338,1.338,0,0,1,0,2.676Zm0-5.045H18.278a1.338,1.338,0,0,1,0-2.676H31.823a1.338,1.338,0,0,1,0,2.676Zm1.338-6.454a1.341,1.341,0,0,1-1.338,1.338H18.278a1.341,1.341,0,0,1-1.338-1.338h0a1.341,1.341,0,0,1,1.338-1.338H31.823a1.345,1.345,0,0,1,1.338,1.338Z" transform="translate(-3.294 0)" fill="#0084ff"/>
</svg>
