<?xml version="1.0" encoding="utf-8"?>
<!-- Generator: Adobe Illustrator 24.0.1, SVG Export Plug-In . SVG Version: 6.00 Build 0)  -->
<svg version="1.1" id="Layer_1" xmlns="http://www.w3.org/2000/svg" xmlns:xlink="http://www.w3.org/1999/xlink" x="0px" y="0px"
	 viewBox="0 0 32 32" style="enable-background:new 0 0 32 32;" xml:space="preserve">
<style type="text/css">
	.st0{fill:#0084FF;}
</style>
<title>pause</title>
<path class="st0" d="M21.7,28.7V3.3C21.7,1.5,23.1,0,25,0s3.3,1.5,3.3,3.3l0,0v25.4c0,1.8-1.5,3.3-3.3,3.3S21.7,30.5,21.7,28.7
	L21.7,28.7z M3.2,28.7V3.3C3.2,1.5,4.7,0,6.5,0s3.3,1.5,3.3,3.3l0,0v25.4c0,1.8-1.5,3.3-3.3,3.3S3.2,30.5,3.2,28.7
	C3.2,28.7,3.2,28.7,3.2,28.7z"/>
</svg>
